# xmcd
#
# Track frame offsets:
#	150
#	33514
#	69526
#	107737
#	136011
#	152350
#	179537
#	200948
#
# Disc length: 3024 seconds
#
# Revision: 0
# Processed by: cddbd v1.5.2PL0 Copyright (c) Steve Scherf et al.
# Submitted via: EasyCDDAExtractor 16.0.6.1
#
DISCID=6c0bce08
DTITLE=Frantique
DYEAR=2015
DGENRE=Disco
TTITLE0=Disco Dancer
TTITLE1=Getting Serious
TTITLE2=Night People These Days
TTITLE3=Strut Your Funky Stuff
TTITLE4=Steady With Teddy
TTITLE5=Sensual You All (Long Version)
TTITLE6=Getting Serious (Edited Disco Version)
TTITLE7=Strut Your Funky Stuff (12" Disco Remix)
EXTD=
EXTT0=
EXTT1=
EXTT2=
EXTT3=
EXTT4=
EXTT5=
EXTT6=
EXTT7=
PLAYORDER=
